<mxfile>
    <diagram id="xpecqGnWRZujgkgLN5ou" name="第 1 页">
        <mxGraphModel dx="680" dy="395" grid="1" gridSize="10" guides="1" tooltips="1" connect="1" arrows="1" fold="1" page="1" pageScale="1" pageWidth="1169" pageHeight="827" background="#ffffff" math="0" shadow="0">
            <root>
                <mxCell id="0"/>
                <mxCell id="1" parent="0"/>
                <mxCell id="30" value="1" style="edgeStyle=none;rounded=0;orthogonalLoop=1;jettySize=auto;html=1;exitX=0.943;exitY=0.795;exitDx=0;exitDy=0;fontSize=18;entryX=-0.006;entryY=0.398;entryDx=0;entryDy=0;exitPerimeter=0;entryPerimeter=0;endArrow=async;endFill=1;strokeWidth=2;strokeColor=#FF3333;" edge="1" parent="1" source="32" target="38">
                    <mxGeometry x="0.0649" y="20" relative="1" as="geometry">
                        <mxPoint x="558" y="500" as="targetPoint"/>
                        <mxPoint as="offset"/>
                    </mxGeometry>
                </mxCell>
                <mxCell id="31" value="0" style="edgeStyle=none;rounded=0;orthogonalLoop=1;jettySize=auto;html=1;exitX=1;exitY=0;exitDx=0;exitDy=0;entryX=0.077;entryY=0.782;entryDx=0;entryDy=0;entryPerimeter=0;fontSize=18;endArrow=async;endFill=1;" edge="1" parent="1" source="32" target="36">
                    <mxGeometry x="0.0261" y="15" relative="1" as="geometry">
                        <mxPoint as="offset"/>
                    </mxGeometry>
                </mxCell>
                <mxCell id="32" value="1" style="ellipse;whiteSpace=wrap;html=1;fontSize=18;strokeWidth=3;" vertex="1" parent="1">
                    <mxGeometry x="300" y="343" width="80" height="80" as="geometry"/>
                </mxCell>
                <mxCell id="45" value="1" style="edgeStyle=none;rounded=0;orthogonalLoop=1;jettySize=auto;html=1;exitX=0;exitY=1;exitDx=0;exitDy=0;entryX=1;entryY=0.413;entryDx=0;entryDy=0;labelBackgroundColor=#ffffff;fontSize=18;endArrow=async;endFill=1;entryPerimeter=0;" edge="1" parent="1" source="33" target="38">
                    <mxGeometry x="0.0603" y="14" relative="1" as="geometry">
                        <mxPoint as="offset"/>
                    </mxGeometry>
                </mxCell>
                <mxCell id="46" value="0" style="edgeStyle=none;rounded=0;orthogonalLoop=1;jettySize=auto;html=1;exitX=0.095;exitY=0.216;exitDx=0;exitDy=0;entryX=1.006;entryY=0.588;entryDx=0;entryDy=0;entryPerimeter=0;labelBackgroundColor=#ffffff;fontSize=18;endArrow=async;endFill=1;exitPerimeter=0;" edge="1" parent="1" source="33" target="36">
                    <mxGeometry x="-0.0257" y="12" relative="1" as="geometry">
                        <mxPoint as="offset"/>
                    </mxGeometry>
                </mxCell>
                <mxCell id="33" value="4" style="ellipse;whiteSpace=wrap;html=1;fontSize=18;strokeWidth=3;" vertex="1" parent="1">
                    <mxGeometry x="720" y="343" width="80" height="80" as="geometry"/>
                </mxCell>
                <mxCell id="34" value="1" style="edgeStyle=none;rounded=0;orthogonalLoop=1;jettySize=auto;html=1;exitX=1;exitY=0.5;exitDx=0;exitDy=0;entryX=0;entryY=0;entryDx=0;entryDy=0;fontSize=18;endArrow=async;endFill=1;strokeWidth=2;strokeColor=#FF3333;" edge="1" parent="1" source="36" target="33">
                    <mxGeometry x="0.0561" y="18" relative="1" as="geometry">
                        <mxPoint as="offset"/>
                    </mxGeometry>
                </mxCell>
                <mxCell id="35" value="0" style="edgeStyle=none;rounded=0;orthogonalLoop=1;jettySize=auto;html=1;fontSize=18;exitX=0.724;exitY=0.932;exitDx=0;exitDy=0;exitPerimeter=0;endArrow=async;endFill=1;" edge="1" parent="1" source="36">
                    <mxGeometry x="0.0778" y="15" relative="1" as="geometry">
                        <mxPoint x="532" y="290.0000000000001" as="sourcePoint"/>
                        <mxPoint x="590" y="469" as="targetPoint"/>
                        <mxPoint as="offset"/>
                    </mxGeometry>
                </mxCell>
                <mxCell id="39" value="1" style="edgeStyle=none;rounded=0;orthogonalLoop=1;jettySize=auto;html=1;exitX=0;exitY=1;exitDx=0;exitDy=0;fontSize=18;endArrow=async;endFill=1;" edge="1" parent="1" source="36" target="32">
                    <mxGeometry x="-0.0033" y="13" relative="1" as="geometry">
                        <mxPoint as="offset"/>
                    </mxGeometry>
                </mxCell>
                <mxCell id="36" value="3" style="ellipse;whiteSpace=wrap;html=1;fontSize=18;strokeWidth=1;" vertex="1" parent="1">
                    <mxGeometry x="480" y="210" width="80" height="80" as="geometry"/>
                </mxCell>
                <mxCell id="37" value="0" style="edgeStyle=none;rounded=0;orthogonalLoop=1;jettySize=auto;html=1;exitX=0.969;exitY=0.311;exitDx=0;exitDy=0;fontSize=18;endArrow=async;endFill=1;exitPerimeter=0;entryX=0.072;entryY=0.803;entryDx=0;entryDy=0;entryPerimeter=0;labelBackgroundColor=#ffffff;" edge="1" parent="1" source="38" target="33">
                    <mxGeometry x="-0.2066" y="14" relative="1" as="geometry">
                        <mxPoint as="offset"/>
                    </mxGeometry>
                </mxCell>
                <mxCell id="41" value="0" style="edgeStyle=none;rounded=0;orthogonalLoop=1;jettySize=auto;html=1;exitX=0;exitY=0.5;exitDx=0;exitDy=0;entryX=1;entryY=1;entryDx=0;entryDy=0;fontSize=18;endArrow=async;endFill=1;" edge="1" parent="1" source="38" target="32">
                    <mxGeometry x="-0.0719" y="18" relative="1" as="geometry">
                        <mxPoint as="offset"/>
                    </mxGeometry>
                </mxCell>
                <mxCell id="43" value="1" style="edgeStyle=none;rounded=0;orthogonalLoop=1;jettySize=auto;html=1;exitX=0.35;exitY=-0.01;exitDx=0;exitDy=0;entryX=0.662;entryY=0.995;entryDx=0;entryDy=0;entryPerimeter=0;fontSize=18;endArrow=async;endFill=1;exitPerimeter=0;strokeWidth=2;strokeColor=#FF3333;" edge="1" parent="1" source="38" target="36">
                    <mxGeometry x="-0.0578" y="20" relative="1" as="geometry">
                        <mxPoint as="offset"/>
                    </mxGeometry>
                </mxCell>
                <mxCell id="38" value="2" style="ellipse;whiteSpace=wrap;html=1;fontSize=18;strokeWidth=1;" vertex="1" parent="1">
                    <mxGeometry x="555" y="470" width="80" height="80" as="geometry"/>
                </mxCell>
            </root>
        </mxGraphModel>
    </diagram>
</mxfile>